<mxfile host="app.diagrams.net" modified="2024-02-25T01:45:31.406Z" agent="Mozilla/5.0 (Windows NT 10.0; Win64; x64) AppleWebKit/537.36 (KHTML, like Gecko) Chrome/122.0.0.0 Safari/537.36" version="23.1.6" etag="3sXK0TocwMhVt41uqUKx" type="github">
  <diagram name="Page-1" id="m5FPhnA12GSQ1GG49S8o">
    <mxGraphModel>
      <root>
        <mxCell id="0" />
        <mxCell id="1" parent="0" />
      </root>
    </mxGraphModel>
  </diagram>
</mxfile>
